<?xml version="1.0" standalone="no"?>
<!DOCTYPE svg PUBLIC "-//W3C//DTD SVG 20010904//EN"
 "http://www.w3.org/TR/2001/REC-SVG-20010904/DTD/svg10.dtd">
<svg version="1.0" xmlns="http://www.w3.org/2000/svg"
 width="1080.000000pt" height="1080.000000pt" viewBox="0 0 1080.000000 1080.000000"
 preserveAspectRatio="xMidYMid meet">
<metadata>
Created by potrace 1.14, written by Peter Selinger 2001-2017
</metadata>
<g transform="translate(0.000000,1080.000000) scale(0.100000,-0.100000)"
fill="#000000" stroke="none">
<path d="M2214 6418 c-3 -5 -11 -7 -17 -5 -7 2 -31 -2 -54 -8 -32 -10 -43 -10
-43 -2 0 9 -2 9 -8 1 -4 -7 -27 -18 -52 -25 -25 -7 -54 -19 -65 -25 -11 -7
-24 -14 -30 -15 -18 -3 -60 -24 -66 -32 -3 -5 -10 -8 -15 -8 -11 2 -129 -75
-168 -109 -116 -102 -192 -199 -253 -320 -15 -30 -32 -58 -38 -62 -5 -4 -7 -8
-2 -8 4 0 1 -13 -8 -30 -9 -16 -13 -30 -9 -30 4 0 1 -6 -5 -13 -6 -8 -8 -17
-4 -20 3 -4 0 -7 -7 -7 -7 0 -10 -3 -7 -7 4 -3 1 -13 -6 -21 -10 -13 -9 -14 1
-8 11 7 12 4 4 -10 -18 -34 -24 -87 -28 -234 -3 -117 0 -162 16 -235 11 -49
22 -94 24 -100 2 -5 7 -25 11 -42 4 -18 12 -33 17 -33 6 0 8 -6 5 -14 -3 -8
-3 -16 1 -18 4 -2 18 -25 31 -53 26 -54 60 -105 76 -117 6 -4 6 -8 2 -8 -5 0
-2 -7 5 -15 7 -8 18 -20 23 -27 24 -30 135 -147 135 -142 0 3 11 -5 25 -18 40
-38 53 -47 80 -60 14 -6 25 -15 25 -19 0 -4 12 -12 28 -18 15 -6 34 -15 42
-19 56 -32 169 -78 184 -74 4 2 14 -3 22 -9 8 -6 14 -9 14 -6 0 3 24 -1 52 -9
37 -9 99 -12 213 -10 150 3 191 7 240 23 11 4 22 7 25 8 32 5 100 32 100 39 0
5 3 6 7 3 3 -4 12 -2 20 4 7 6 13 9 13 5 0 -3 19 6 42 21 24 14 49 26 55 26 7
0 13 3 13 7 0 3 15 14 33 25 37 22 37 22 101 77 27 24 57 50 67 59 11 9 19 20
19 24 0 4 12 19 28 33 15 15 41 47 57 72 17 25 33 47 38 48 4 2 7 9 7 16 0 8
9 25 21 40 11 14 18 26 16 26 -3 0 8 27 24 61 16 33 27 64 24 70 -4 5 -1 9 6
9 7 0 9 3 6 6 -3 4 -1 16 5 28 11 21 14 35 25 116 9 63 8 340 -1 370 -4 14 -9
36 -11 50 -2 14 -8 38 -14 53 -6 16 -9 33 -5 38 3 5 1 9 -3 9 -5 0 -17 24 -27
53 -11 28 -26 60 -34 70 -8 9 -12 17 -8 17 4 0 -4 15 -18 33 -15 19 -26 37
-26 42 0 28 -185 228 -242 263 -16 9 -28 20 -28 24 0 4 -7 8 -15 8 -8 0 -15 5
-15 10 0 6 -6 10 -14 10 -8 0 -16 3 -18 8 -4 10 -130 72 -145 72 -7 0 -13 4
-13 8 0 4 -10 9 -22 9 -13 1 -32 6 -43 12 -22 11 -66 22 -140 37 -51 10 -295
12 -301 2z"/>
<path d="M4244 5620 l0 -380 81 0 80 0 1 163 c0 183 9 213 68 241 84 40 163 0
172 -87 1 -17 3 -96 3 -174 l1 -143 80 0 81 0 -1 187 c-2 244 -22 303 -119
349 -72 35 -213 23 -263 -23 -22 -19 -20 -26 -22 122 l-1 120 -80 3 -81 3 0
-381z"/>
<path d="M7824 5620 l0 -380 81 0 81 0 -1 70 c-1 68 0 71 37 107 l38 37 23
-29 c12 -16 29 -36 37 -44 8 -9 37 -44 64 -79 l49 -62 99 0 99 0 -120 149
c-66 82 -122 154 -123 159 -2 6 45 60 105 120 59 61 107 113 107 116 0 3 -42
6 -92 6 l-93 0 -100 -98 c-55 -53 -107 -102 -115 -109 -14 -10 -15 12 -15 200
l0 212 -81 3 -80 3 0 -381z"/>
<path d="M3534 5895 l-1 -65 66 -1 c36 0 88 -1 116 -2 l49 -2 1 -290 0 -290
83 -3 82 -3 0 295 0 295 113 -1 112 0 3 66 3 66 -314 0 -313 0 0 -65z"/>
<path d="M9141 5863 c2 -84 3 -83 -41 -83 -38 0 -40 -2 -41 -30 -1 -16 -1 -42
-2 -57 -1 -26 2 -28 41 -31 24 -2 42 -8 43 -15 0 -7 1 -73 3 -147 2 -107 6
-143 21 -173 25 -52 79 -87 148 -94 53 -5 152 11 162 27 7 11 -35 120 -46 120
-4 0 -10 -4 -14 -9 -8 -14 -75 -5 -93 13 -13 13 -16 41 -17 146 l-1 130 68 0
c65 0 67 1 70 28 2 15 1 41 -1 59 l-3 32 -67 3 -66 3 -1 53 c-1 28 -2 57 -3
62 0 6 -35 10 -81 10 l-80 0 1 -47z"/>
<path d="M5088 5780 c-68 -25 -120 -70 -153 -132 -24 -44 -29 -64 -29 -128 -1
-134 65 -227 193 -271 63 -22 174 -22 240 1 47 15 101 53 101 70 0 4 -17 26
-38 49 l-38 43 -35 -21 c-75 -43 -179 -34 -231 21 -53 57 -49 58 177 58 113 0
206 3 206 8 16 93 -29 210 -103 265 -77 56 -198 72 -290 37z m167 -114 c33
-14 75 -66 75 -93 0 -10 -34 -13 -135 -13 l-135 0 15 37 c31 73 104 101 180
69z"/>
<path d="M5902 5780 c-21 -10 -45 -25 -55 -34 -16 -16 -17 -16 -17 13 l0 31
-78 0 -78 0 0 -275 -1 -275 81 0 81 0 -1 142 c0 161 8 213 38 245 41 44 141
38 167 -10 18 -34 19 -48 20 -219 l1 -158 80 0 80 0 1 155 c1 85 2 158 3 163
14 79 98 124 166 89 48 -24 58 -65 56 -244 l-1 -163 82 0 82 0 -1 179 c0 99
-5 201 -11 228 -23 100 -129 164 -249 150 -57 -7 -126 -39 -146 -68 -13 -19
-15 -19 -52 15 -63 57 -167 72 -248 36z"/>
<path d="M6875 5790 c-33 -8 -135 -50 -135 -57 0 -3 50 -105 54 -110 2 -2 22
7 47 19 52 25 152 30 191 9 26 -13 48 -49 48 -76 0 -12 -18 -15 -87 -16 -49
-1 -92 -1 -96 0 -20 3 -95 -25 -123 -46 -42 -31 -58 -72 -52 -132 9 -89 67
-138 177 -148 69 -6 129 9 165 42 l26 24 0 -29 0 -30 74 0 c50 0 75 4 78 13 9
28 0 355 -11 395 -17 61 -76 117 -145 137 -54 16 -151 18 -211 5z m205 -355
c0 -65 -78 -110 -153 -88 -58 16 -68 84 -16 110 13 7 57 13 97 13 l72 0 0 -35z"/>
<path d="M7610 5774 c-26 -12 -51 -27 -54 -33 -12 -19 -24 -3 -18 24 l4 25
-79 0 -79 0 0 -275 0 -276 81 3 80 3 0 157 c1 142 3 160 21 185 27 37 80 63
126 63 l37 0 -1 75 -1 75 -35 -2 c-20 -1 -57 -12 -82 -24z"/>
<path d="M8622 5782 c-73 -27 -122 -69 -157 -137 -62 -122 -30 -273 76 -350
111 -82 294 -87 394 -10 19 14 35 30 35 35 0 6 -17 28 -38 51 l-39 40 -35 -21
c-74 -43 -193 -29 -238 28 -40 50 -37 51 187 54 l207 3 1 35 c4 114 -64 224
-163 266 -60 25 -168 28 -230 6z m168 -118 c34 -16 57 -43 65 -76 l7 -28 -129
0 c-71 0 -133 3 -136 6 -12 13 36 83 67 99 35 17 89 17 126 -1z"/>
<path d="M7952 5068 c-15 -15 2 -38 28 -38 19 0 34 25 24 41 -7 13 -38 11 -52
-3z"/>
<path d="M9021 5071 c-21 -14 -5 -43 21 -39 15 2 23 10 23 23 0 22 -22 30 -44
16z"/>
<path d="M4010 4955 l0 -115 28 0 27 0 -2 100 c-1 55 -2 107 -2 115 -1 9 -11
15 -26 15 l-25 0 0 -115z"/>
<path d="M3605 5050 c-11 -18 5 -30 39 -30 l34 0 -2 -77 c-2 -95 0 -103 30
-103 24 0 24 2 24 90 l0 90 35 0 c28 0 35 4 35 20 0 19 -7 20 -94 20 -53 0
-98 -4 -101 -10z"/>
<path d="M4950 5040 c-23 -23 -25 -41 -8 -58 9 -9 7 -17 -10 -35 -25 -26 -29
-69 -8 -86 23 -19 83 -25 116 -11 21 9 34 9 43 2 9 -8 16 -6 25 9 9 14 9 19 1
19 -7 0 -9 11 -5 30 4 23 2 32 -10 37 -9 3 -19 0 -24 -6 -6 -10 -12 -10 -28 0
-19 12 -20 14 -3 28 29 26 32 50 11 71 -26 26 -74 26 -100 0z m70 -30 c0 -13
-7 -20 -20 -20 -13 0 -20 7 -20 20 0 13 7 20 20 20 13 0 20 -7 20 -20z m-12
-93 c24 -26 20 -37 -13 -37 -32 0 -46 18 -32 41 15 24 19 24 45 -4z"/>
<path d="M5269 5030 c-38 -32 -51 -77 -34 -117 26 -62 112 -91 175 -58 30 15
31 18 17 33 -14 13 -20 14 -41 3 -54 -30 -116 16 -102 75 13 49 61 68 108 43
16 -9 24 -8 36 5 14 14 12 17 -21 31 -52 21 -102 16 -138 -15z"/>
<path d="M7120 4950 l0 -110 25 0 c24 0 25 3 25 63 l1 62 32 -52 c18 -29 36
-51 41 -50 6 2 25 25 43 51 35 51 36 50 35 -31 0 -39 2 -43 24 -43 24 0 24 0
24 110 0 107 -1 110 -22 110 -18 0 -30 -14 -53 -56 -45 -83 -47 -83 -91 -9
-29 49 -45 65 -61 65 -22 0 -23 -3 -23 -110z"/>
<path d="M8589 5054 c-1 -5 -2 -55 -3 -111 l-1 -103 28 0 c16 0 27 5 26 13 -5
39 1 47 37 47 83 0 130 71 85 130 -17 21 -29 25 -95 28 -42 2 -77 0 -77 -4z
m129 -47 c26 -31 1 -67 -46 -67 -35 0 -38 2 -36 28 1 15 3 33 3 40 1 16 65 16
79 -1z"/>
<path d="M4530 5028 c0 -10 -7 -18 -15 -18 -8 0 -15 -9 -15 -20 0 -11 7 -20
15 -20 11 0 15 -12 15 -49 0 -40 4 -53 22 -65 32 -23 80 -21 76 2 -2 9 -13 18
-26 20 -19 3 -22 9 -22 48 0 37 3 44 20 44 13 0 20 7 20 20 0 13 -7 20 -20 20
-13 0 -20 7 -20 18 0 13 -8 18 -25 18 -17 0 -25 -5 -25 -18z"/>
<path d="M5860 5028 c0 -10 -7 -18 -15 -18 -8 0 -15 -9 -15 -20 0 -11 7 -20
15 -20 11 0 15 -12 15 -48 0 -35 5 -54 18 -65 20 -18 67 -23 76 -8 11 17 -5
39 -25 34 -17 -5 -19 0 -19 41 0 39 3 46 20 46 13 0 20 7 20 20 0 13 -7 20
-20 20 -13 0 -20 7 -20 18 0 13 -8 18 -25 18 -17 0 -25 -5 -25 -18z"/>
<path d="M7825 5032 c3 -8 -3 -16 -14 -19 -20 -5 -18 -43 3 -43 7 0 11 -15 10
-37 -1 -21 3 -48 7 -60 9 -25 46 -38 78 -28 25 8 17 33 -12 37 -17 2 -21 11
-23 46 -1 38 1 42 21 42 30 0 27 32 -4 40 -12 3 -22 8 -22 13 2 20 -1 23 -24
23 -18 0 -24 -4 -20 -14z"/>
<path d="M9335 5029 c-4 -10 -11 -19 -16 -19 -15 0 -10 -37 5 -43 10 -4 13
-16 10 -35 -10 -62 27 -101 81 -88 29 7 23 36 -6 36 -10 0 -19 6 -20 13 0 6
-2 27 -4 45 -3 27 0 32 19 32 15 0 22 6 23 20 1 15 -4 20 -24 20 -18 0 -24 4
-19 15 3 8 2 15 -2 16 -4 0 -15 2 -24 4 -10 2 -20 -5 -23 -16z"/>
<path d="M3826 4998 c-28 -16 -1 -38 38 -31 22 3 36 0 45 -11 12 -14 10 -16
-18 -16 -33 0 -71 -15 -82 -33 -10 -14 2 -47 20 -56 9 -5 44 -9 79 -9 l62 0 0
62 c0 52 -4 66 -22 83 -25 22 -92 28 -122 11z m94 -96 c0 -14 -23 -32 -41 -32
-17 0 -32 23 -22 34 9 9 63 7 63 -2z"/>
<path d="M4143 5000 c-25 -10 -52 -57 -47 -83 9 -57 74 -91 133 -71 37 13 34
40 -4 36 -39 -3 -75 6 -75 18 0 6 27 10 60 10 41 0 60 4 61 13 3 28 -3 43 -27
65 -26 23 -63 27 -101 12z m77 -45 c11 -13 7 -15 -29 -15 -38 0 -50 8 -34 23
12 12 50 7 63 -8z"/>
<path d="M4309 4984 c0 -13 -1 -42 -1 -64 0 -79 1 -80 26 -80 21 0 24 4 23 38
-1 64 10 92 38 92 31 0 37 -11 37 -76 1 -50 3 -54 24 -54 26 0 26 -1 26 55 0
68 -1 74 -21 94 -15 15 -33 19 -85 19 -63 0 -66 -1 -67 -24z"/>
<path d="M4665 4990 c-32 -36 -4 -70 70 -85 25 -6 27 -8 13 -16 -19 -10 -55
-8 -75 4 -12 8 -30 -29 -19 -40 3 -3 26 -8 51 -11 78 -7 125 46 73 82 -12 9
-35 16 -50 16 -19 0 -28 5 -28 16 0 12 9 15 43 12 36 -3 42 0 42 17 0 17 -7
20 -52 21 -39 2 -56 -3 -68 -16z"/>
<path d="M5468 5005 c-3 -3 -4 -33 -2 -68 5 -82 21 -96 109 -95 l65 1 0 84 c0
82 0 83 -25 83 -24 0 -25 -3 -25 -53 0 -56 -12 -77 -42 -77 -23 0 -35 30 -33
86 2 39 -1 44 -20 44 -12 0 -24 -2 -27 -5z"/>
<path d="M5685 4990 c-8 -9 -15 -24 -15 -33 0 -22 38 -47 72 -47 19 0 28 -5
28 -16 0 -12 -9 -15 -47 -12 -38 2 -48 0 -51 -14 -2 -13 7 -18 41 -23 108 -16
150 73 45 94 -17 4 -34 13 -36 20 -4 11 4 13 37 8 32 -4 44 -2 48 10 3 8 0 19
-8 24 -22 14 -98 7 -114 -11z"/>
<path d="M6014 4998 c-22 -10 -44 -47 -44 -73 0 -54 54 -92 114 -81 70 13 94
90 46 142 -22 23 -82 29 -116 12z m86 -48 c15 -29 3 -59 -26 -66 -27 -7 -54
10 -54 33 0 49 59 73 80 33z"/>
<path d="M6195 5000 c-3 -4 -4 -42 -3 -84 2 -76 2 -77 27 -74 23 3 25 7 25 57
1 57 18 80 50 68 12 -5 16 -20 16 -67 0 -57 1 -60 25 -60 21 0 25 5 26 33 2
69 5 80 20 90 34 21 49 2 49 -63 0 -57 1 -60 25 -60 24 0 25 2 25 65 0 83 -22
110 -78 101 -42 -7 -42 -7 -134 -2 -38 2 -70 1 -73 -4z"/>
<path d="M6548 4996 c-8 -6 -20 -21 -26 -33 -41 -77 42 -148 130 -112 42 17
19 41 -31 33 -27 -4 -41 -2 -50 10 -12 14 -7 16 54 16 l68 0 -7 33 c-3 17 -16
40 -29 49 -24 19 -85 21 -109 4z m76 -32 c29 -11 16 -24 -24 -24 -38 0 -54 13
-27 23 18 8 33 8 51 1z"/>
<path d="M6723 4925 c1 -84 1 -85 26 -85 25 0 26 3 23 44 -4 52 11 86 38 86
13 0 20 7 20 20 0 23 -29 27 -48 8 -9 -9 -12 -9 -12 0 0 7 -11 12 -24 12 -23
0 -24 -2 -23 -85z"/>
<path d="M6873 4998 c-24 -12 -36 -53 -18 -68 6 -5 28 -13 49 -17 51 -11 45
-29 -8 -26 -53 3 -72 -21 -30 -37 52 -20 107 -9 122 25 13 28 -2 53 -36 60
-45 8 -62 17 -56 26 3 6 21 9 40 7 40 -3 68 17 44 32 -20 13 -79 11 -107 -2z"/>
<path d="M7454 5000 c-72 -29 -57 -141 20 -156 42 -7 91 7 91 27 0 9 -10 13
-30 11 -39 -3 -75 6 -75 18 0 6 27 10 60 10 41 0 60 4 61 13 3 28 -3 43 -27
65 -26 22 -63 27 -100 12z m76 -45 c11 -13 7 -15 -29 -15 -38 0 -50 8 -34 23
12 12 50 7 63 -8z"/>
<path d="M7643 4990 c-18 -11 -33 -25 -34 -32 0 -7 -2 -20 -4 -30 -2 -9 5 -30
16 -46 21 -35 70 -50 116 -35 39 13 37 39 -2 35 -39 -3 -75 6 -75 18 0 6 27
10 60 10 60 0 65 3 61 40 -3 24 -50 60 -79 60 -15 0 -42 -9 -59 -20z m87 -35
c11 -13 7 -15 -29 -15 -39 0 -55 13 -28 23 23 10 45 7 57 -8z"/>
<path d="M7953 4925 c0 -83 0 -85 23 -85 13 0 24 6 25 13 1 13 1 137 0 150 -1
4 -12 7 -25 7 -23 0 -23 -2 -23 -85z"/>
<path d="M8045 4924 l0 -84 28 0 c26 0 27 2 26 43 -3 66 8 89 39 85 26 -3 27
-6 30 -65 3 -59 4 -63 27 -63 26 0 27 2 27 65 0 60 -1 64 -21 84 -15 15 -34
19 -88 19 l-68 0 0 -84z"/>
<path d="M8274 4977 c-29 -34 -24 -71 13 -105 26 -23 74 -28 100 -9 8 6 10 2
6 -12 -6 -25 -32 -34 -76 -26 -23 5 -37 2 -45 -8 -11 -12 -7 -17 19 -26 53
-18 97 -14 124 14 14 13 26 30 26 37 4 44 5 145 1 156 -5 15 -42 16 -42 1 0
-8 -4 -8 -14 0 -26 21 -85 10 -112 -22z m110 -22 c15 -16 11 -44 -8 -57 -31
-21 -80 8 -69 40 13 34 51 43 77 17z"/>
<path d="M8843 5000 c-25 -10 -52 -57 -47 -83 13 -84 133 -103 176 -29 41 72
-44 146 -129 112z m75 -42 c17 -17 15 -53 -3 -68 -8 -7 -25 -10 -40 -6 -24 6
-30 21 -25 56 4 29 46 40 68 18z"/>
<path d="M9019 5005 c0 -3 -1 -36 -1 -75 0 -38 1 -74 1 -80 1 -5 12 -10 25
-10 24 0 24 2 25 85 1 84 0 85 -24 85 -14 0 -25 -2 -26 -5z"/>
<path d="M9117 5003 c-2 -5 -5 -43 -5 -86 l-1 -78 26 3 c25 3 27 7 26 48 -1
54 11 80 37 80 26 0 39 -27 37 -80 -1 -42 0 -45 26 -48 27 -3 27 -3 25 60 -2
92 -46 131 -109 98 -13 -7 -19 -7 -19 0 0 11 -37 14 -43 3z"/>
</g>
</svg>
